<svg width="152" height="35" viewBox="0 0 152 35" fill="none" xmlns="http://www.w3.org/2000/svg">
						<path d="M11 2L2 31.7755" stroke="#000000" stroke-width="2.5" stroke-linecap="round"
							stroke-linejoin="round" />
						<path
							d="M28.7386 2.36364L28.4886 3.875H22.9886L21.3068 14H19.5511L21.483 2.36364H28.7386ZM28.3616 14L28.6003 12.5284H28.9071C29.1495 12.5284 29.3616 12.4773 29.5435 12.375C29.7291 12.2689 29.8957 12.0909 30.0435 11.8409C30.1912 11.5909 30.3313 11.2462 30.4639 10.8068C30.5965 10.3636 30.7329 9.80682 30.873 9.13636L31.6628 5.27273H37.7537L36.2991 14H34.6344L35.8503 6.73864H32.9923L32.3616 9.70455C32.2101 10.4242 32.034 11.053 31.8332 11.5909C31.6325 12.1288 31.3957 12.5777 31.123 12.9375C30.8503 13.2936 30.5321 13.5606 30.1685 13.7386C29.8048 13.9129 29.3844 14 28.9071 14H28.3616ZM41.4818 14.1932C40.9288 14.1932 40.4458 14.0909 40.033 13.8864C39.6201 13.678 39.3152 13.3769 39.1182 12.983C38.9212 12.589 38.8701 12.1061 38.9648 11.5341C39.0481 11.0417 39.211 10.6364 39.4534 10.3182C39.6996 10 39.9989 9.74811 40.3511 9.5625C40.7034 9.37311 41.086 9.23106 41.4989 9.13636C41.9117 9.04167 42.3284 8.97159 42.7489 8.92614C43.2792 8.86553 43.7091 8.81439 44.0386 8.77273C44.372 8.73106 44.622 8.66667 44.7886 8.57955C44.9553 8.48864 45.0557 8.34091 45.0898 8.13636V8.09659C45.1693 7.60417 45.0973 7.22159 44.8739 6.94886C44.6542 6.67235 44.2716 6.53409 43.7261 6.53409C43.158 6.53409 42.6807 6.65909 42.2943 6.90909C41.9117 7.15909 41.6295 7.43939 41.4477 7.75L39.925 7.38636C40.1977 6.85606 40.5443 6.42803 40.9648 6.10227C41.389 5.77273 41.853 5.53409 42.3568 5.38636C42.8606 5.23485 43.3758 5.15909 43.9023 5.15909C44.2508 5.15909 44.6125 5.20076 44.9875 5.28409C45.3625 5.36364 45.7034 5.51136 46.0102 5.72727C46.3208 5.94318 46.5519 6.25189 46.7034 6.65341C46.8549 7.05114 46.8777 7.56818 46.7716 8.20455L45.8114 14H44.1523L44.3568 12.8068H44.2886C44.1447 13.0265 43.9439 13.2424 43.6864 13.4545C43.4326 13.6667 43.122 13.8428 42.7545 13.983C42.3871 14.1231 41.9629 14.1932 41.4818 14.1932ZM42.0614 12.8295C42.5348 12.8295 42.9534 12.7367 43.317 12.5511C43.6845 12.3655 43.9818 12.1231 44.2091 11.8239C44.4364 11.5208 44.5784 11.197 44.6352 10.8523L44.8227 9.72727C44.7508 9.78788 44.6239 9.8428 44.442 9.89205C44.264 9.94129 44.0633 9.98485 43.8398 10.0227C43.6163 10.0606 43.3966 10.0928 43.1807 10.1193C42.9686 10.1458 42.7924 10.1705 42.6523 10.1932C42.3189 10.2348 42.0064 10.3049 41.7148 10.4034C41.4269 10.5019 41.1864 10.6439 40.9932 10.8295C40.8 11.0114 40.6788 11.2538 40.6295 11.5568C40.5614 11.9773 40.6617 12.2955 40.9307 12.5114C41.2034 12.7235 41.5803 12.8295 42.0614 12.8295ZM48.4798 14L49.9344 5.27273H53.548C54.5291 5.27273 55.2734 5.48295 55.781 5.90341C56.2923 6.32386 56.4874 6.89015 56.3662 7.60227C56.2829 8.11742 56.0518 8.52462 55.673 8.82386C55.2942 9.11932 54.8321 9.31818 54.2866 9.42045C54.6654 9.46591 55.0026 9.58333 55.298 9.77273C55.5935 9.95833 55.8132 10.2102 55.9571 10.5284C56.101 10.8428 56.1389 11.2159 56.0707 11.6477C55.9912 12.1098 55.8018 12.5189 55.5026 12.875C55.2033 13.2273 54.8113 13.5038 54.3264 13.7045C53.8454 13.9015 53.2866 14 52.6503 14H48.4798ZM50.3151 12.5795H52.8889C53.3132 12.5795 53.6616 12.4792 53.9344 12.2784C54.2071 12.0739 54.3681 11.8011 54.4173 11.4602C54.4893 11.0511 54.423 10.7311 54.2185 10.5C54.0177 10.2689 53.7109 10.1534 53.298 10.1534H50.7241L50.3151 12.5795ZM50.923 8.90909H52.9571C53.2753 8.90909 53.5575 8.86364 53.8037 8.77273C54.0499 8.68182 54.2488 8.55303 54.4003 8.38636C54.5518 8.21591 54.6465 8.01515 54.6844 7.78409C54.745 7.45076 54.6503 7.18939 54.4003 7C54.1541 6.80682 53.7904 6.71023 53.3094 6.71023H51.2923L50.923 8.90909ZM64.698 8.90341L64.4594 10.375H59.7264L59.9651 8.90341H64.698ZM61.056 5.27273L59.6014 14H57.9423L59.3969 5.27273H61.056ZM66.4991 5.27273L65.0446 14H63.3855L64.8401 5.27273H66.4991ZM69.9503 8.27273H72.4901C73.5545 8.27273 74.3291 8.53788 74.8139 9.06818C75.3026 9.59848 75.4806 10.2822 75.348 11.1193C75.2533 11.6648 75.0393 12.1553 74.706 12.5909C74.3726 13.0265 73.937 13.3712 73.3991 13.625C72.8651 13.875 72.242 14 71.5298 14H67.7173L69.1719 5.27273H70.831L69.6207 12.5341H71.7685C72.2609 12.5341 72.6851 12.4072 73.0412 12.1534C73.401 11.8996 73.6113 11.572 73.6719 11.1705C73.7438 10.7462 73.6435 10.4015 73.3707 10.1364C73.1018 9.87121 72.7268 9.73864 72.2457 9.73864H69.7116L69.9503 8.27273ZM76.0866 14L77.5412 5.27273H79.2401L77.7855 14H76.0866ZM82.5449 11.6193L87.4426 5.27273H89.2722L87.8176 14H86.1528L87.204 7.64773L82.3176 14H80.4767L81.9313 5.27273H83.5903L82.5449 11.6193ZM87.1926 2.31818H88.5847C88.4786 2.95833 88.1661 3.47917 87.6472 3.88068C87.1282 4.27841 86.4824 4.47727 85.7097 4.47727C84.9445 4.47727 84.3706 4.27841 83.9881 3.88068C83.6055 3.47917 83.4691 2.95833 83.579 2.31818H84.9653C84.9199 2.60227 84.9616 2.85417 85.0903 3.07386C85.2229 3.28977 85.4919 3.39773 85.8972 3.39773C86.2949 3.39773 86.5979 3.28977 86.8063 3.07386C87.0146 2.85795 87.1434 2.60606 87.1926 2.31818ZM95.1361 14L96.5906 5.27273H103.704L102.25 14H100.591L101.801 6.73864H97.9997L96.7895 14H95.1361ZM108.653 14.1761C107.823 14.1761 107.13 13.9867 106.573 13.608C106.016 13.2254 105.624 12.6913 105.397 12.0057C105.173 11.3163 105.136 10.5152 105.283 9.60227C105.427 8.70833 105.717 7.92803 106.153 7.26136C106.592 6.5947 107.141 6.07765 107.8 5.71023C108.463 5.3428 109.2 5.15909 110.011 5.15909C110.84 5.15909 111.531 5.35038 112.084 5.73295C112.641 6.11553 113.033 6.65152 113.261 7.34091C113.488 8.0303 113.528 8.83333 113.38 9.75C113.236 10.6364 112.942 11.4129 112.499 12.0795C112.06 12.7424 111.511 13.2576 110.851 13.625C110.192 13.9924 109.459 14.1761 108.653 14.1761ZM108.749 12.75C109.295 12.75 109.77 12.6061 110.175 12.3182C110.584 12.0303 110.918 11.6477 111.175 11.1705C111.433 10.6932 111.609 10.1705 111.704 9.60227C111.791 9.05303 111.789 8.55114 111.698 8.09659C111.611 7.63826 111.421 7.27083 111.13 6.99432C110.838 6.7178 110.433 6.57955 109.914 6.57955C109.368 6.57955 108.889 6.72538 108.476 7.01705C108.067 7.30492 107.734 7.68939 107.476 8.17045C107.223 8.65152 107.05 9.17614 106.959 9.74432C106.872 10.2898 106.872 10.7917 106.959 11.25C107.046 11.7045 107.236 12.0682 107.528 12.3409C107.819 12.6136 108.226 12.75 108.749 12.75ZM21.9318 31.1932C21.3788 31.1932 20.8958 31.0909 20.483 30.8864C20.0701 30.678 19.7652 30.3769 19.5682 29.983C19.3712 29.589 19.3201 29.1061 19.4148 28.5341C19.4981 28.0417 19.661 27.6364 19.9034 27.3182C20.1496 27 20.4489 26.7481 20.8011 26.5625C21.1534 26.3731 21.536 26.2311 21.9489 26.1364C22.3617 26.0417 22.7784 25.9716 23.1989 25.9261C23.7292 25.8655 24.1591 25.8144 24.4886 25.7727C24.822 25.7311 25.072 25.6667 25.2386 25.5795C25.4053 25.4886 25.5057 25.3409 25.5398 25.1364V25.0966C25.6193 24.6042 25.5473 24.2216 25.3239 23.9489C25.1042 23.6723 24.7216 23.5341 24.1761 23.5341C23.608 23.5341 23.1307 23.6591 22.7443 23.9091C22.3617 24.1591 22.0795 24.4394 21.8977 24.75L20.375 24.3864C20.6477 23.8561 20.9943 23.428 21.4148 23.1023C21.839 22.7727 22.303 22.5341 22.8068 22.3864C23.3106 22.2348 23.8258 22.1591 24.3523 22.1591C24.7008 22.1591 25.0625 22.2008 25.4375 22.2841C25.8125 22.3636 26.1534 22.5114 26.4602 22.7273C26.7708 22.9432 27.0019 23.2519 27.1534 23.6534C27.3049 24.0511 27.3277 24.5682 27.2216 25.2045L26.2614 31H24.6023L24.8068 29.8068H24.7386C24.5947 30.0265 24.3939 30.2424 24.1364 30.4545C23.8826 30.6667 23.572 30.8428 23.2045 30.983C22.8371 31.1231 22.4129 31.1932 21.9318 31.1932ZM22.5114 29.8295C22.9848 29.8295 23.4034 29.7367 23.767 29.5511C24.1345 29.3655 24.4318 29.1231 24.6591 28.8239C24.8864 28.5208 25.0284 28.197 25.0852 27.8523L25.2727 26.7273C25.2008 26.7879 25.0739 26.8428 24.892 26.892C24.714 26.9413 24.5133 26.9848 24.2898 27.0227C24.0663 27.0606 23.8466 27.0928 23.6307 27.1193C23.4186 27.1458 23.2424 27.1705 23.1023 27.1932C22.7689 27.2348 22.4564 27.3049 22.1648 27.4034C21.8769 27.5019 21.6364 27.6439 21.4432 27.8295C21.25 28.0114 21.1288 28.2538 21.0795 28.5568C21.0114 28.9773 21.1117 29.2955 21.3807 29.5114C21.6534 29.7235 22.0303 29.8295 22.5114 29.8295ZM28.9298 31L30.3844 22.2727H32.0832L31.4696 25.9318H32.2878L35.7821 22.2727H37.8844L33.7935 26.517L36.4696 31H34.3616L32.3162 27.5114H31.2082L30.6287 31H28.9298ZM38.1892 31L39.6437 22.2727H41.3426L40.729 25.9318H41.5472L45.0415 22.2727H47.1437L43.0528 26.517L45.729 31H43.621L41.5756 27.5114H40.4676L39.8881 31H38.1892ZM48.0295 34.2727C47.772 34.2727 47.5428 34.2519 47.342 34.2102C47.1413 34.1723 46.9917 34.1307 46.8932 34.0852L47.5409 32.6932C47.8402 32.7765 48.1072 32.8087 48.342 32.7898C48.5807 32.7708 48.8042 32.6723 49.0125 32.4943C49.2208 32.3163 49.433 32.036 49.6489 31.6534L49.967 31.0795L48.2568 22.2727H50.0068L51.0864 29.0625H51.1773L54.5182 22.2727H56.4102L51.1773 32.1534C50.9311 32.6231 50.6508 33.0133 50.3364 33.3239C50.0258 33.6383 49.6773 33.875 49.2909 34.0341C48.9083 34.1932 48.4879 34.2727 48.0295 34.2727ZM62.2023 28.8977L66.1284 22.2727H67.5943L62.4864 31H61.225L59.1 22.2727H60.5489L62.2023 28.8977ZM60.0716 22.2727L58.617 31H56.958L58.4125 22.2727H60.0716ZM65.1341 31L66.5886 22.2727H68.242L66.7875 31H65.1341ZM69.6889 34.2727C69.4313 34.2727 69.2022 34.2519 69.0014 34.2102C68.8007 34.1723 68.651 34.1307 68.5526 34.0852L69.2003 32.6932C69.4995 32.7765 69.7666 32.8087 70.0014 32.7898C70.2401 32.7708 70.4635 32.6723 70.6719 32.4943C70.8802 32.3163 71.0923 32.036 71.3082 31.6534L71.6264 31.0795L69.9162 22.2727H71.6662L72.7457 29.0625H72.8366L76.1776 22.2727H78.0696L72.8366 32.1534C72.5904 32.6231 72.3101 33.0133 71.9957 33.3239C71.6851 33.6383 71.3366 33.875 70.9503 34.0341C70.5677 34.1932 70.1473 34.2727 69.6889 34.2727ZM77.2054 31L77.444 29.5284H77.7509C77.9933 29.5284 78.2054 29.4773 78.3872 29.375C78.5728 29.2689 78.7395 29.0909 78.8872 28.8409C79.0349 28.5909 79.1751 28.2462 79.3077 27.8068C79.4402 27.3636 79.5766 26.8068 79.7168 26.1364L80.5065 22.2727H86.5974L85.1429 31H83.4781L84.694 23.7386H81.8361L81.2054 26.7045C81.0539 27.4242 80.8777 28.053 80.677 28.5909C80.4762 29.1288 80.2395 29.5777 79.9668 29.9375C79.694 30.2936 79.3759 30.5606 79.0122 30.7386C78.6486 30.9129 78.2281 31 77.7509 31H77.2054ZM93.0131 31L94.2233 23.7216H92.1324C91.6324 23.7216 91.2252 23.8371 90.9108 24.0682C90.5964 24.2992 90.4108 24.6023 90.354 24.9773C90.2858 25.3485 90.3616 25.6477 90.5813 25.875C90.801 26.0985 91.1419 26.2102 91.604 26.2102H94.3028L94.0756 27.5852H91.3767C90.7328 27.5852 90.1949 27.4792 89.7631 27.267C89.3313 27.0511 89.0225 26.7462 88.8369 26.3523C88.6513 25.9583 88.604 25.4924 88.6949 24.9545C88.7858 24.4053 88.9941 23.9318 89.3199 23.5341C89.6456 23.1326 90.068 22.822 90.5869 22.6023C91.1097 22.3826 91.7063 22.2727 92.3767 22.2727H96.0642L94.6097 31H93.0131ZM87.2858 31L90.479 26.5909H92.2233L89.0244 31H87.2858ZM97.4045 23.7386L97.6432 22.2727H105.007L104.768 23.7386H101.922L100.728 31H99.0636L100.257 23.7386H97.4045ZM109.059 31.1761C108.229 31.1761 107.536 30.9867 106.979 30.608C106.422 30.2254 106.03 29.6913 105.803 29.0057C105.58 28.3163 105.542 27.5152 105.689 26.6023C105.833 25.7083 106.123 24.928 106.559 24.2614C106.998 23.5947 107.547 23.0777 108.207 22.7102C108.869 22.3428 109.606 22.1591 110.417 22.1591C111.246 22.1591 111.938 22.3504 112.491 22.733C113.047 23.1155 113.439 23.6515 113.667 24.3409C113.894 25.0303 113.934 25.8333 113.786 26.75C113.642 27.6364 113.349 28.4129 112.905 29.0795C112.466 29.7424 111.917 30.2576 111.258 30.625C110.599 30.9924 109.866 31.1761 109.059 31.1761ZM109.155 29.75C109.701 29.75 110.176 29.6061 110.582 29.3182C110.991 29.0303 111.324 28.6477 111.582 28.1705C111.839 27.6932 112.015 27.1705 112.11 26.6023C112.197 26.053 112.195 25.5511 112.104 25.0966C112.017 24.6383 111.828 24.2708 111.536 23.9943C111.244 23.7178 110.839 23.5795 110.32 23.5795C109.775 23.5795 109.296 23.7254 108.883 24.017C108.474 24.3049 108.14 24.6894 107.883 25.1705C107.629 25.6515 107.457 26.1761 107.366 26.7443C107.279 27.2898 107.279 27.7917 107.366 28.25C107.453 28.7045 107.642 29.0682 107.934 29.3409C108.225 29.6136 108.633 29.75 109.155 29.75ZM114.844 34.2727L116.855 22.2727H118.514L118.281 23.6875H118.423C118.552 23.5057 118.726 23.2955 118.946 23.0568C119.17 22.8182 119.463 22.6098 119.827 22.4318C120.19 22.25 120.643 22.1591 121.185 22.1591C121.889 22.1591 122.486 22.3371 122.974 22.6932C123.463 23.0492 123.812 23.5625 124.02 24.233C124.228 24.9034 124.255 25.7102 124.099 26.6534C123.944 27.5966 123.652 28.4053 123.224 29.0795C122.796 29.75 122.277 30.267 121.668 30.6307C121.062 30.9905 120.404 31.1705 119.696 31.1705C119.166 31.1705 118.747 31.0814 118.44 30.9034C118.137 30.7254 117.912 30.517 117.764 30.2784C117.616 30.0398 117.505 29.8277 117.429 29.642H117.327L116.554 34.2727H114.844ZM117.793 26.6364C117.694 27.25 117.694 27.7879 117.793 28.25C117.891 28.7121 118.088 29.0739 118.384 29.3352C118.683 29.5928 119.077 29.7216 119.565 29.7216C120.073 29.7216 120.518 29.5871 120.901 29.3182C121.283 29.0455 121.599 28.6761 121.849 28.2102C122.103 27.7443 122.279 27.2197 122.378 26.6364C122.473 26.0606 122.471 25.5436 122.372 25.0852C122.277 24.6269 122.082 24.2652 121.787 24C121.491 23.7348 121.088 23.6023 120.577 23.6023C120.08 23.6023 119.641 23.7292 119.259 23.983C118.88 24.2367 118.565 24.5909 118.315 25.0455C118.065 25.5 117.891 26.0303 117.793 26.6364ZM128.191 31.1932C127.638 31.1932 127.155 31.0909 126.742 30.8864C126.329 30.678 126.025 30.3769 125.828 29.983C125.631 29.589 125.579 29.1061 125.674 28.5341C125.757 28.0417 125.92 27.6364 126.163 27.3182C126.409 27 126.708 26.7481 127.061 26.5625C127.413 26.3731 127.795 26.2311 128.208 26.1364C128.621 26.0417 129.038 25.9716 129.458 25.9261C129.989 25.8655 130.418 25.8144 130.748 25.7727C131.081 25.7311 131.331 25.6667 131.498 25.5795C131.665 25.4886 131.765 25.3409 131.799 25.1364V25.0966C131.879 24.6042 131.807 24.2216 131.583 23.9489C131.364 23.6723 130.981 23.5341 130.436 23.5341C129.867 23.5341 129.39 23.6591 129.004 23.9091C128.621 24.1591 128.339 24.4394 128.157 24.75L126.634 24.3864C126.907 23.8561 127.254 23.428 127.674 23.1023C128.098 22.7727 128.562 22.5341 129.066 22.3864C129.57 22.2348 130.085 22.1591 130.612 22.1591C130.96 22.1591 131.322 22.2008 131.697 22.2841C132.072 22.3636 132.413 22.5114 132.72 22.7273C133.03 22.9432 133.261 23.2519 133.413 23.6534C133.564 24.0511 133.587 24.5682 133.481 25.2045L132.521 31H130.862L131.066 29.8068H130.998C130.854 30.0265 130.653 30.2424 130.396 30.4545C130.142 30.6667 129.831 30.8428 129.464 30.983C129.096 31.1231 128.672 31.1932 128.191 31.1932ZM128.771 29.8295C129.244 29.8295 129.663 29.7367 130.026 29.5511C130.394 29.3655 130.691 29.1231 130.918 28.8239C131.146 28.5208 131.288 28.197 131.345 27.8523L131.532 26.7273C131.46 26.7879 131.333 26.8428 131.151 26.892C130.973 26.9413 130.773 26.9848 130.549 27.0227C130.326 27.0606 130.106 27.0928 129.89 27.1193C129.678 27.1458 129.502 27.1705 129.362 27.1932C129.028 27.2348 128.716 27.3049 128.424 27.4034C128.136 27.5019 127.896 27.6439 127.703 27.8295C127.509 28.0114 127.388 28.2538 127.339 28.5568C127.271 28.9773 127.371 29.2955 127.64 29.5114C127.913 29.7235 128.29 29.8295 128.771 29.8295ZM140.434 28.8977L144.36 22.2727H145.826L140.718 31H139.456L137.331 22.2727H138.78L140.434 28.8977ZM138.303 22.2727L136.848 31H135.189L136.644 22.2727H138.303ZM143.365 31L144.82 22.2727H146.473L145.019 31H143.365ZM151.767 19.3636L150.244 27.6534H148.676L149.897 19.3636H151.767ZM149.045 31.108C148.727 31.108 148.462 30.9981 148.25 30.7784C148.041 30.5587 147.939 30.2898 147.943 29.9716C147.947 29.6572 148.064 29.3939 148.295 29.1818C148.53 28.9659 148.803 28.858 149.113 28.858C149.424 28.858 149.689 28.9678 149.909 29.1875C150.129 29.4072 150.231 29.6686 150.216 29.9716C150.204 30.1837 150.144 30.3769 150.034 30.5511C149.928 30.7216 149.788 30.858 149.613 30.9602C149.439 31.0587 149.25 31.108 149.045 31.108Z"
							fill="#000" />
					</svg>
