<svg width="168" height="44" viewBox="0 0 168 44" fill="none" xmlns="http://www.w3.org/2000/svg">
<path d="M18.6887 2.87692H18.9307L10.8246 12.518C10.8124 12.5329 10.797 12.5448 10.7794 12.553C10.7619 12.5612 10.7426 12.5654 10.723 12.5654H2.9418C2.89208 12.5654 2.84369 12.5493 2.80399 12.5194C2.76428 12.4894 2.73543 12.4474 2.7218 12.3995L0.00226052 2.98692C-0.000132339 2.97904 -0.000634012 2.9707 0.000796147 2.96258C0.00222631 2.95447 0.00554808 2.9468 0.0104923 2.94021C0.0154366 2.93362 0.0218642 2.92828 0.0292545 2.92464C0.0366448 2.92099 0.0447898 2.91914 0.0530298 2.91923L18.6887 2.87692Z" fill="#FFF200"/>
<path d="M43.6925 2.87692H43.8194C43.8126 2.89385 43.8166 2.90908 43.8313 2.92261C43.8392 2.93051 43.8392 2.93897 43.8313 2.948L11.6639 41.0182C11.6165 41.0746 11.5821 41.0678 11.5607 40.9978L7.57188 28.0703C7.55157 28.0049 7.57583 27.9722 7.64465 27.9722L15.8557 27.962C15.9155 27.962 15.9646 27.9394 16.003 27.8943L30.8411 10.2029C30.8544 10.1874 30.863 10.1684 30.8658 10.1482C30.8686 10.128 30.8655 10.1074 30.857 10.0889C30.8484 10.0703 30.8347 10.0546 30.8175 10.0437C30.8003 10.0327 30.7803 10.0269 30.7599 10.0269H21.3151C21.3027 10.027 21.2905 10.0236 21.2801 10.0169C21.2696 10.0103 21.2612 10.0008 21.256 9.98951C21.2509 9.97824 21.249 9.96571 21.2508 9.95343C21.2526 9.94115 21.2579 9.92965 21.266 9.92031L27.162 2.98523C27.1981 2.94236 27.2444 2.92092 27.3008 2.92092L43.6925 2.87692Z" fill="#FFF200"/>
<path d="M9.99881 25.2154H6.74112C6.7283 25.2153 6.71584 25.2111 6.7055 25.2035C6.69517 25.196 6.6875 25.1853 6.68358 25.1731L3.61205 15.3949C3.60912 15.3858 3.60839 15.3762 3.60989 15.3667C3.61139 15.3573 3.61509 15.3483 3.62069 15.3406C3.62629 15.3329 3.63364 15.3265 3.64213 15.3222C3.65062 15.3178 3.66003 15.3155 3.66958 15.3154H18.1524C18.164 15.3153 18.1754 15.3185 18.1852 15.3247C18.1951 15.3308 18.2029 15.3397 18.2079 15.3502C18.2129 15.3607 18.2148 15.3724 18.2133 15.3839C18.2119 15.3954 18.2072 15.4063 18.1997 15.4152L10.0462 25.1934C10.0404 25.2003 10.0332 25.2059 10.025 25.2097C10.0168 25.2135 10.0079 25.2155 9.99881 25.2154Z" fill="#FFF200"/>
<path d="M80.217 16.4861C80.8469 17.3246 81.285 18.2941 81.5062 19.3394C81.7275 20.3847 81.7277 21.4853 81.5067 22.5783C81.2857 23.6712 80.8478 24.7352 80.2182 25.7095C79.5885 26.6837 78.7794 27.5492 77.837 28.2564C75.9337 29.6847 73.603 30.3818 71.3577 30.1944C69.1124 30.0069 67.1363 28.9503 65.8642 27.2569C65.2344 26.4184 64.7963 25.4489 64.575 24.4036C64.3537 23.3583 64.3536 22.2577 64.5746 21.1648C64.7956 20.0718 65.2334 19.0078 65.863 18.0336C66.4927 17.0593 67.3018 16.1938 68.2442 15.4866C70.1475 14.0583 72.4782 13.3612 74.7235 13.5487C76.9689 13.7361 78.9449 14.7927 80.217 16.4861ZM70.6104 25.3702C71.3685 25.8968 72.3516 26.0336 73.3434 25.7506C74.3352 25.4676 75.2544 24.7879 75.899 23.861C76.2181 23.4021 76.4602 22.8963 76.6114 22.3725C76.7626 21.8487 76.8199 21.3172 76.7802 20.8083C76.7404 20.2994 76.6043 19.8231 76.3797 19.4065C76.155 18.99 75.8462 18.6414 75.4708 18.3807C74.7127 17.8541 73.7296 17.7172 72.7379 18.0002C71.7461 18.2833 70.8268 18.963 70.1823 19.8898C69.8631 20.3488 69.6211 20.8546 69.4699 21.3783C69.3187 21.9021 69.2613 22.4337 69.3011 22.9425C69.3408 23.4514 69.4769 23.9278 69.7016 24.3443C69.9263 24.7608 70.2351 25.1094 70.6104 25.3702Z" fill="black"/>
<path d="M139.69 28.0062L133.332 27.977C133.319 27.977 133.305 27.9804 133.294 27.9869C133.282 27.9934 133.272 28.0027 133.264 28.014L132.07 29.848C132.063 29.8593 132.053 29.8686 132.041 29.8751C132.029 29.8815 132.015 29.8849 132.002 29.885H126.922C126.907 29.8852 126.892 29.8812 126.879 29.8735C126.866 29.8659 126.855 29.8548 126.848 29.8415C126.841 29.8282 126.838 29.8133 126.839 29.7983C126.84 29.7833 126.845 29.7688 126.854 29.7565L137.925 13.7081C137.933 13.6972 137.943 13.6883 137.955 13.6821C137.967 13.676 137.98 13.6729 137.994 13.6731L142.413 13.6828C142.433 13.6831 142.452 13.6903 142.466 13.7032C142.481 13.716 142.491 13.7337 142.493 13.7529L144.969 29.7915C144.971 29.8032 144.97 29.8151 144.967 29.8264C144.963 29.8377 144.957 29.8482 144.95 29.857C144.942 29.8659 144.932 29.873 144.922 29.8778C144.911 29.8827 144.899 29.8851 144.887 29.885H140.041C140.021 29.8851 140.001 29.8778 139.986 29.8645C139.971 29.8513 139.961 29.8329 139.959 29.8129L139.772 28.0782C139.77 28.0583 139.76 28.0399 139.745 28.0266C139.73 28.0133 139.71 28.0061 139.69 28.0062ZM138.746 19.9363C138.744 19.9219 138.738 19.9082 138.729 19.8973C138.719 19.8864 138.706 19.8786 138.692 19.8752C138.678 19.8718 138.663 19.8728 138.65 19.8782C138.636 19.8836 138.625 19.893 138.617 19.9051L135.872 24.0657C135.866 24.0761 135.862 24.088 135.862 24.1002C135.861 24.1124 135.864 24.1246 135.87 24.1354C135.876 24.1462 135.884 24.1554 135.894 24.1619C135.905 24.1685 135.917 24.1722 135.929 24.1728L139.196 24.1981C139.206 24.1982 139.216 24.1961 139.225 24.192C139.234 24.1878 139.242 24.1818 139.249 24.1742C139.256 24.1666 139.26 24.1577 139.263 24.1481C139.266 24.1384 139.267 24.1282 139.266 24.1182L138.746 19.9363Z" fill="black"/>
<path d="M55.1434 22.8488C55.1992 22.8021 55.2531 22.7385 55.3051 22.658C57.1374 19.7662 58.9626 16.8595 60.7807 13.9379C60.8027 13.9016 60.8337 13.8716 60.8705 13.8508C60.9074 13.83 60.9489 13.8191 60.991 13.8191L66.0887 13.8288C66.2303 13.8301 66.2621 13.8892 66.1842 14.006L55.5739 29.9005C55.5579 29.9255 55.5358 29.9461 55.5096 29.9604C55.4833 29.9747 55.4539 29.9822 55.4239 29.9823H51.1989C51.143 29.9823 51.1112 29.9544 51.1034 29.8986L49.0133 13.9554C49.0029 13.8801 49.0361 13.8418 49.1127 13.8405L54.0799 13.823C54.1127 13.8229 54.1445 13.8352 54.169 13.8575C54.1935 13.8798 54.2089 13.9105 54.2123 13.9437L54.9895 22.7826C54.9911 22.7997 54.9973 22.816 55.0074 22.8299C55.0175 22.8437 55.0311 22.8546 55.0468 22.8614C55.0626 22.8681 55.0798 22.8705 55.0968 22.8683C55.1138 22.8661 55.1299 22.8594 55.1434 22.8488Z" fill="black"/>
<path d="M85.9359 13.8444L90.6128 13.8249C90.6252 13.8248 90.6375 13.8275 90.6487 13.8329C90.6598 13.8383 90.6696 13.8463 90.6771 13.8561C90.6847 13.8659 90.6899 13.8774 90.6922 13.8895C90.6946 13.9017 90.6941 13.9142 90.6908 13.9262L87.5916 25.5278C87.5884 25.5396 87.5878 25.5519 87.5901 25.564C87.5923 25.576 87.5973 25.5873 87.6047 25.5971C87.612 25.6069 87.6215 25.6148 87.6324 25.6204C87.6433 25.6259 87.6554 25.6289 87.6676 25.629L94.8885 25.6212C94.9009 25.6211 94.9132 25.6238 94.9243 25.6292C94.9355 25.6346 94.9452 25.6426 94.9528 25.6524C94.9604 25.6622 94.9655 25.6737 94.9679 25.6858C94.9703 25.698 94.9698 25.7105 94.9664 25.7225L93.8483 29.8265C93.8437 29.8432 93.8338 29.8579 93.8201 29.8684C93.8064 29.8789 93.7896 29.8847 93.7724 29.885H81.6817C81.6694 29.8848 81.6574 29.8818 81.6465 29.8763C81.6356 29.8708 81.6261 29.8628 81.6188 29.853C81.6114 29.8432 81.6064 29.8319 81.6042 29.8199C81.6019 29.8079 81.6024 29.7955 81.6057 29.7837L85.8599 13.9028C85.8646 13.8862 85.8745 13.8715 85.8882 13.861C85.9019 13.8504 85.9186 13.8446 85.9359 13.8444Z" fill="black"/>
<path d="M105.214 18.1354L102.084 29.8363C102.08 29.8498 102.072 29.8617 102.061 29.8702C102.05 29.8786 102.036 29.8831 102.022 29.883L97.3234 29.8888C97.3134 29.8889 97.3036 29.8867 97.2946 29.8823C97.2857 29.8779 97.2778 29.8715 97.2718 29.8635C97.2658 29.8556 97.2616 29.8464 97.2598 29.8366C97.2579 29.8268 97.2584 29.8167 97.2611 29.8071L100.409 18.1334C100.411 18.1238 100.411 18.1138 100.409 18.1041C100.407 18.0944 100.403 18.0853 100.397 18.0776C100.39 18.0698 100.382 18.0636 100.373 18.0595C100.364 18.0553 100.355 18.0533 100.345 18.0536L95.8255 18.1218C95.8156 18.1221 95.8057 18.1201 95.7967 18.1159C95.7876 18.1118 95.7797 18.1056 95.7735 18.0978C95.7673 18.0901 95.7629 18.081 95.7608 18.0713C95.7586 18.0616 95.7588 18.0516 95.7612 18.0419L96.8735 13.895C96.8773 13.8815 96.8855 13.8696 96.8967 13.8612C96.908 13.8527 96.9217 13.8482 96.9358 13.8483L110.939 13.8619C110.949 13.8619 110.959 13.8642 110.968 13.8685C110.976 13.8727 110.984 13.879 110.99 13.8867C110.996 13.8944 111 13.9033 111.002 13.9129C111.004 13.9224 111.004 13.9323 111.002 13.9418L109.934 18.0147C109.93 18.0279 109.923 18.0396 109.912 18.048C109.901 18.0564 109.888 18.0611 109.874 18.0614L105.277 18.0887C105.263 18.0886 105.249 18.0931 105.238 18.1015C105.226 18.11 105.218 18.1219 105.214 18.1354Z" fill="black"/>
<path d="M122.708 21.9046C122.633 21.9604 122.538 22.0506 122.422 22.1752C120.931 23.7963 119.446 25.4025 117.967 26.9938C117.937 27.0261 117.899 27.0501 117.857 27.0637C117.815 27.0773 117.77 27.0799 117.726 27.0713C117.683 27.0628 117.642 27.0433 117.608 27.0147C117.575 26.9862 117.549 26.9495 117.533 26.9081L115.587 21.8073C115.58 21.7887 115.568 21.7729 115.551 21.7621C115.535 21.7514 115.515 21.7461 115.495 21.7472C115.475 21.7483 115.456 21.7556 115.44 21.7681C115.425 21.7807 115.413 21.7978 115.408 21.817L113.275 29.7818C113.255 29.8506 113.21 29.885 113.14 29.885H108.621C108.605 29.8849 108.589 29.8811 108.574 29.8738C108.559 29.8666 108.547 29.8561 108.537 29.8431C108.527 29.8301 108.52 29.8151 108.517 29.799C108.513 29.783 108.514 29.7664 108.518 29.7506L112.76 13.9476C112.783 13.8671 112.835 13.8269 112.918 13.8269L117.412 13.8619C117.442 13.8626 117.472 13.8725 117.496 13.8903C117.521 13.9081 117.539 13.9328 117.548 13.9612L119.426 19.4106C119.433 19.4307 119.445 19.4486 119.461 19.4627C119.477 19.4767 119.496 19.4864 119.517 19.4907C119.538 19.495 119.56 19.4938 119.58 19.4873C119.6 19.4808 119.618 19.4691 119.633 19.4534C121.261 17.6415 122.884 15.8024 124.501 13.9359C124.695 13.712 125.286 13.8678 125.539 13.8619C126.954 13.836 128.363 13.836 129.764 13.8619C129.776 13.862 129.788 13.865 129.799 13.8706C129.81 13.8762 129.819 13.8843 129.827 13.8942C129.834 13.9042 129.839 13.9158 129.841 13.9281C129.844 13.9404 129.843 13.953 129.84 13.9651L125.595 29.7818C125.577 29.8506 125.532 29.885 125.461 29.885H120.93C120.803 29.885 120.755 29.8233 120.788 29.7L122.843 21.9961C122.884 21.8378 122.84 21.8073 122.708 21.9046Z" fill="black"/>
<path d="M160.884 13.8386L165.467 13.8327C165.539 13.8327 165.565 13.8671 165.547 13.9359L161.274 29.7662C161.253 29.8454 161.201 29.885 161.12 29.885H157.21C157.148 29.885 157.104 29.8564 157.078 29.7993C155.821 27.1307 154.579 24.4589 153.351 21.7839C153.298 21.6658 153.217 21.6249 153.108 21.6612C153.087 21.6691 153.068 21.6818 153.053 21.6984C153.037 21.715 153.026 21.7349 153.02 21.7566L150.879 29.8032C150.865 29.8577 150.83 29.885 150.774 29.885H146.253C146.126 29.885 146.079 29.8233 146.111 29.7L150.342 13.9223C150.36 13.8522 150.405 13.8178 150.478 13.8191L154.656 13.8697C154.73 13.871 154.784 13.9054 154.816 13.9729C155.942 16.4299 157.065 18.8882 158.184 21.3478C158.263 21.5217 158.342 21.6385 158.42 21.6982C158.546 21.793 158.63 21.7644 158.671 21.6126L160.736 13.9534C160.757 13.8782 160.806 13.8399 160.884 13.8386Z" fill="black"/>
</svg>
