<svg width="12" height="11" viewBox="0 0 22 21" fill="none" xmlns="http://www.w3.org/2000/svg">
    <path fill-rule="evenodd" clip-rule="evenodd" d="M3.56 0.439998C3.27565 0.175038 2.89956 0.0307918 2.51096 0.0376482C2.12235 0.0445047 1.75158 0.201929 1.47676 0.476755C1.20193 0.751581 1.04451 1.12235 1.03765 1.51095C1.0308 1.89956 1.17504 2.27565 1.44 2.56L8.88 10L1.44 17.44C1.29263 17.5773 1.17442 17.7429 1.09244 17.9269C1.01046 18.1109 0.966372 18.3095 0.962819 18.511C0.959265 18.7124 0.996315 18.9124 1.07176 19.0992C1.1472 19.286 1.25949 19.4556 1.40193 19.5981C1.54436 19.7405 1.71403 19.8528 1.90081 19.9282C2.08758 20.0037 2.28764 20.0407 2.48905 20.0372C2.69045 20.0336 2.88908 19.9895 3.07308 19.9076C3.25708 19.8256 3.42268 19.7074 3.56 19.56L11 12.12L18.44 19.56C18.5773 19.7074 18.7429 19.8256 18.9269 19.9076C19.1109 19.9895 19.3096 20.0336 19.511 20.0372C19.7124 20.0407 19.9124 20.0037 20.0992 19.9282C20.286 19.8528 20.4556 19.7405 20.5981 19.5981C20.7405 19.4556 20.8528 19.286 20.9282 19.0992C21.0037 18.9124 21.0407 18.7124 21.0372 18.511C21.0336 18.3095 20.9895 18.1109 20.9076 17.9269C20.8256 17.7429 20.7074 17.5773 20.56 17.44L13.12 10L20.56 2.56C20.825 2.27565 20.9692 1.89956 20.9624 1.51095C20.9555 1.12235 20.7981 0.751581 20.5232 0.476755C20.2484 0.201929 19.8776 0.0445047 19.489 0.0376482C19.1004 0.0307918 18.7244 0.175038 18.44 0.439998L11 7.88L3.56 0.439998Z" fill="red"/>
</svg>
