<svg width="32" height="32" viewBox="0 0 32 32" fill="none" xmlns="http://www.w3.org/2000/svg">
    <path fill-rule="evenodd" clip-rule="evenodd" d="M8.56 6.44C8.27565 6.17504 7.89956 6.03079 7.51096 6.03765C7.12235 6.0445 6.75158 6.20193 6.47676 6.47675C6.20193 6.75158 6.04451 7.12235 6.03765 7.51095C6.0308 7.89956 6.17504 8.27565 6.44 8.56L13.88 16L6.44 23.44C6.29263 23.5773 6.17442 23.7429 6.09244 23.9269C6.01046 24.1109 5.96637 24.3095 5.96282 24.511C5.95927 24.7124 5.99631 24.9124 6.07176 25.0992C6.1472 25.286 6.25949 25.4556 6.40193 25.5981C6.54436 25.7405 6.71403 25.8528 6.90081 25.9282C7.08758 26.0037 7.28764 26.0407 7.48905 26.0372C7.69045 26.0336 7.88908 25.9895 8.07308 25.9076C8.25708 25.8256 8.42268 25.7074 8.56 25.56L16 18.12L23.44 25.56C23.5773 25.7074 23.7429 25.8256 23.9269 25.9076C24.1109 25.9895 24.3096 26.0336 24.511 26.0372C24.7124 26.0407 24.9124 26.0037 25.0992 25.9282C25.286 25.8528 25.4556 25.7405 25.5981 25.5981C25.7405 25.4556 25.8528 25.286 25.9282 25.0992C26.0037 24.9124 26.0407 24.7124 26.0372 24.511C26.0336 24.3095 25.9895 24.1109 25.9076 23.9269C25.8256 23.7429 25.7074 23.5773 25.56 23.44L18.12 16L25.56 8.56C25.825 8.27565 25.9692 7.89956 25.9624 7.51095C25.9555 7.12235 25.7981 6.75158 25.5232 6.47675C25.2484 6.20193 24.8776 6.0445 24.489 6.03765C24.1004 6.03079 23.7244 6.17504 23.44 6.44L16 13.88L8.56 6.44Z" fill="red"/>
</svg>
