<svg width="120" height="32" viewBox="0 0 120 32" fill="none" xmlns="http://www.w3.org/2000/svg">
<g clip-path="url(#clip0_0_1)">
<path d="M26.8931 13.1672C26.8635 15.5722 28.9778 16.9141 30.5705 17.7121C32.2069 18.5307 32.7565 19.0557 32.75 19.7879C32.7379 20.9083 31.4448 21.4028 30.2348 21.4221C28.1237 21.4557 26.8962 20.8361 25.9204 20.3674L25.1599 24.026C26.1389 24.4898 27.9518 24.8944 29.8317 24.9121C34.2446 24.9121 37.1317 22.6726 37.1473 19.2003C37.1646 14.7934 31.2185 14.5495 31.2591 12.5798C31.2731 11.9825 31.8275 11.3451 33.0421 11.1831C33.6434 11.1012 35.3031 11.0386 37.1849 11.9294L37.9234 8.38969C36.9115 8.01086 35.6109 7.64811 33.9915 7.64811C29.838 7.64811 26.9167 9.91815 26.8931 13.1672ZM45.0202 7.95301C44.2144 7.95301 43.5354 8.43626 43.2323 9.17783L36.9287 24.6521H41.3384L42.2159 22.1588H47.6044L48.1134 24.6521H52L48.6084 7.95301H45.0202ZM45.6371 12.4641L46.9097 18.7348H43.4245L45.6371 12.4641ZM21.5467 7.95322L18.0708 24.6519H22.2729L25.7471 7.9528H21.5467M15.3305 7.9528L10.9568 19.3191L9.18755 9.65481C8.97995 8.57597 8.16014 7.95301 7.24973 7.95301H0.100141L0 8.43793C1.46778 8.76538 3.13544 9.29353 4.14578 9.85863C4.76409 10.2038 4.94041 10.5056 5.14353 11.3259L8.49448 24.6521H12.935L19.7429 7.95301L15.3305 7.9528Z" fill="url(#paint0_linear_0_1)"/>
</g>
<g clip-path="url(#clip1_0_1)">
<path d="M86.9512 3.40186H100.997V28.4083H86.9512V3.40186Z" fill="#FF5F00"/>
<path d="M87.8431 15.9052C87.8431 10.8245 90.2509 6.31789 93.9519 3.40186C91.232 1.28121 87.7986 0 84.053 0C75.179 0 68 7.11306 68 15.9052C68 24.6972 75.179 31.8104 84.0528 31.8104C87.7984 31.8104 91.2318 30.5292 93.9519 28.4083C90.2509 25.5366 87.8431 20.986 87.8431 15.9052Z" fill="#EB001B"/>
<path d="M119.948 15.9052C119.948 24.6972 112.769 31.8104 103.896 31.8104C100.15 31.8104 96.7166 30.5292 93.9966 28.4083C97.7422 25.4925 100.106 20.986 100.106 15.9052C100.106 10.8245 97.6975 6.31789 93.9966 3.40186C96.7164 1.28121 100.15 0 103.896 0C112.769 0 119.948 7.15733 119.948 15.9052Z" fill="#F79E1B"/>
</g>
<defs>
<linearGradient id="paint0_linear_0_1" x1="2390.65" y1="59.5437" x2="2442.02" y2="-1713.41" gradientUnits="userSpaceOnUse">
<stop stop-color="#222357"/>
<stop offset="1" stop-color="#254AA5"/>
</linearGradient>
<clipPath id="clip0_0_1">
<rect width="52" height="17.3333" fill="white" transform="translate(0 7.64795)"/>
</clipPath>
<clipPath id="clip1_0_1">
<rect width="52" height="32" fill="white" transform="translate(68)"/>
</clipPath>
</defs>
</svg>
