<svg width="64" height="64" viewBox="0 0 64 64" fill="none" xmlns="http://www.w3.org/2000/svg">
<g opacity="0.8" clip-path="url(#clip0_36_45)">
<path d="M60.4445 32.0001C60.4445 26.3743 58.7762 20.8749 55.6507 16.1972C52.5252 11.5196 48.0828 7.87377 42.8852 5.72088C37.6877 3.56799 31.9685 3.00469 26.4508 4.10223C20.9331 5.19976 15.8648 7.90883 11.8868 11.8869C7.90873 15.8649 5.19966 20.9332 4.10212 26.4509C3.00459 31.9686 3.56788 37.6878 5.72078 42.8853C7.87366 48.0829 11.5195 52.5253 16.1971 55.6508C20.8748 58.7763 26.3742 60.4446 32 60.4446C39.544 60.4446 46.7789 57.4477 52.1133 52.1134C57.4476 46.779 60.4445 39.5441 60.4445 32.0001ZM7.11113 32.0001C7.11113 27.0776 8.57084 22.2656 11.3057 18.1726C14.0405 14.0796 17.9276 10.8896 22.4754 9.00579C27.0233 7.12201 32.0276 6.62912 36.8556 7.58947C41.6836 8.54981 46.1183 10.9202 49.5991 14.401C53.0799 17.8818 55.4503 22.3166 56.4107 27.1445C57.371 31.9725 56.8781 36.9768 54.9943 41.5247C53.1106 46.0725 49.9205 49.9596 45.8275 52.6945C41.7346 55.4293 36.9226 56.889 32 56.889C25.3991 56.889 19.0685 54.2668 14.4009 49.5992C9.73335 44.9316 7.11113 38.6011 7.11113 32.0001Z" fill="black"/>
<path d="M49.3156 32.142L35.7867 18.6131C35.6273 18.427 35.4312 18.2759 35.2106 18.1692C34.99 18.0624 34.7498 18.0025 34.505 17.993C34.2601 17.9836 34.016 18.0248 33.7879 18.1142C33.5597 18.2036 33.3525 18.3391 33.1793 18.5124C33.006 18.6857 32.8705 18.8928 32.7811 19.121C32.6917 19.3491 32.6505 19.5933 32.6599 19.8381C32.6694 20.0829 32.7293 20.3232 32.836 20.5437C32.9427 20.7643 33.0939 20.9604 33.28 21.1198L42.3467 30.222H15.68C15.2085 30.222 14.7563 30.4093 14.4229 30.7427C14.0895 31.0761 13.9022 31.5283 13.9022 31.9998C13.9022 32.4713 14.0895 32.9235 14.4229 33.2569C14.7563 33.5903 15.2085 33.7776 15.68 33.7776H42.6667L33.28 43.1642C33.0939 43.3236 32.9427 43.5197 32.836 43.7403C32.7293 43.9608 32.6694 44.2011 32.6599 44.4459C32.6505 44.6907 32.6917 44.9349 32.7811 45.163C32.8705 45.3912 33.006 45.5983 33.1793 45.7716C33.3525 45.9449 33.5597 46.0804 33.7879 46.1698C34.016 46.2592 34.2601 46.3004 34.505 46.291C34.7498 46.2815 34.99 46.2216 35.2106 46.1148C35.4312 46.0081 35.6273 45.857 35.7867 45.6709L49.3156 32.142Z" fill="black"/>
</g>
<defs>
<clipPath id="clip0_36_45">
<rect width="64" height="64" fill="white" transform="matrix(0 1 -1 0 64 0)"/>
</clipPath>
</defs>
</svg>
